#!OML:ASF H:\Pregnant\Project 1\Capture day 1\Session 1\femalepreg.ASF
:FULLY-SPECIFIED
:DEGREES
1382
root 4.823 15.5609 22.5249 22.0831 -74.9471 -0.736995
lowerback -20.6849 -0.433122 -2.8834
upperback -7.00371 -0.476474 1.63883
thorax 3.98488 -0.369595 3.273
lowerneck -19.6599 4.27332 3.98587
upperneck 28.3474 4.59962 -0.354025
head 12.8433 2.29893 -0.0695443
rclavicle -2.05121e-014 -9.54166e-015
rhumerus -42.9543 -6.59789 -69.65
rradius 24.3175
rwrist 4.92724
rhand -9.36307 -14.5981
rfingers 7.12502
rthumb 16.5969 -43.9084
lclavicle -2.05121e-014 -9.54166e-015
lhumerus -44.49 3.55662 78.8117
lradius 27.4132
lwrist 34.4964
lhand -20.7156 2.79864
lfingers 7.12502
lthumb 5.64898 32.7033
rfemur -37.5743 18.8971 14.7925
rtibia 37.9669
rfoot -17.6154 -24.6297
rtoes -0.620841
lfemur -22.035 -13.6343 -18.8656
ltibia 13.5014
lfoot -7.35812 17.4365
ltoes -10.9762
1383
root 4.82534 15.5611 22.5254 22.0871 -74.9216 -0.747444
lowerback -20.6665 -0.427409 -2.86155
upperback -6.97555 -0.471932 1.64672
thorax 4.00559 -0.367257 3.27004
lowerneck -19.6484 4.27743 3.9887
upperneck 28.2899 4.60579 -0.352186
head 12.8176 2.30314 -0.0688896
rclavicle 4.22417e-015 4.37326e-015
rhumerus -42.9779 -6.63715 -69.5772
rradius 24.3257
rwrist 4.93238
rhand -9.40305 -14.6216
rfingers 7.12502
rthumb 16.5584 -43.9352
lclavicle 4.22417e-015 4.37326e-015
lhumerus -44.4939 3.5139 78.8383
lradius 27.5016
lwrist 34.542
lhand -20.7208 2.80654
lfingers 7.12502
lthumb 5.64396 32.7114
rfemur -37.5666 18.9008 14.7926
rtibia 37.9574
rfoot -17.6043 -24.6574
rtoes -0.637875
lfemur -22.0532 -13.6233 -18.8653
ltibia 13.5211
lfoot -7.35571 17.3984
ltoes -10.9835
1384
root 4.82783 15.5614 22.5259 22.0936 -74.8957 -0.757612
lowerback -20.6498 -0.422156 -2.83982
upperback -6.94867 -0.467952 1.65304
thorax 4.02583 -0.365224 3.26535
lowerneck -19.6304 4.27598 3.99395
upperneck 28.2253 4.60507 -0.355678
head 12.7877 2.3039 -0.0720612
rclavicle 9.4547e-015 -4.37326e-015
rhumerus -42.9912 -6.685 -69.5063
rradius 24.3432
rwrist 4.93807
rhand -9.45106 -14.6413
rfingers 7.12502
rthumb 16.5122 -43.9587
lclavicle 9.4547e-015 -4.37326e-015
lhumerus -44.4908 3.46648 78.8632
lradius 27.596
lwrist 34.5951
lhand -20.7365 2.80892
lfingers 7.12502
lthumb 5.62873 32.7142
rfemur -37.5628 18.9026 14.7922
rtibia 37.9475
rfoot -17.59 -24.6846
rtoes -0.644338
lfemur -22.0758 -13.613 -18.8634
ltibia 13.5416
lfoot -7.3545 17.3599
ltoes -10.9778
1385
root 4.8305 15.5616 22.5263 22.1006 -74.8695 -0.76523
lowerback -20.6342 -0.417671 -2.81943
upperback -6.92359 -0.464754 1.65818
thorax 4.04472 -0.363579 3.25996
lowerneck -19.6081 4.27126 4.00133
upperneck 28.1571 4.59986 -0.361808
head 12.7556 2.30257 -0.0774814
rclavicle 2.73453e-014 -1.19271e-015
rhumerus -42.995 -6.73946 -69.4371
rradius 24.3707
rwrist 4.94301
rhand -9.50552 -14.6566
rfingers 7.12502
rthumb 16.4598 -43.9784
lclavicle 2.73453e-014 -1.19271e-015
lhumerus -44.4816 3.41636 78.8858
lradius 27.6959
lwrist 34.6546
lhand -20.7593 2.80616
lfingers 7.12502
lthumb 5.60674 32.712
rfemur -37.5632 18.9027 14.7906
rtibia 37.938
rfoot -17.5725 -24.7123
rtoes -0.646697
lfemur -22.1024 -13.6046 -18.8602
ltibia 13.5614
lfoot -7.35283 17.3223
ltoes -10.9622
1386
root 4.83336 15.5619 22.5265 22.1059 -74.8428 -0.768381
lowerback -20.6185 -0.414179 -2.80164
upperback -6.90057 -0.462446 1.66278
thorax 4.06137 -0.362344 3.25526
lowerneck -19.5847 4.26668 4.0103
upperneck 28.0897 4.59398 -0.366883
head 12.7237 2.30123 -0.0828877
rclavicle 1.83255e-014 -8.74653e-015
rhumerus -42.9907 -6.79584 -69.3702
rradius 24.4098
rwrist 4.9421
rhand -9.5662 -14.6707
rfingers 7.12502
rthumb 16.4014 -43.9973
lclavicle 1.83255e-014 -8.74653e-015
lhumerus -44.4665 3.36616 78.9066
lradius 27.8007
lwrist 34.7171
lhand -20.7839 2.80048
lfingers 7.12502
lthumb 5.58299 32.7069
rfemur -37.5678 18.9024 14.7871
rtibia 37.9294
rfoot -17.5527 -24.7417
rtoes -0.649042
lfemur -22.1317 -13.5982 -18.8564
ltibia 13.5788
lfoot -7.34839 17.2863
ltoes -10.9456
1387
root 4.83642 15.5622 22.5266 22.1084 -74.8152 -0.766682
lowerback -20.6014 -0.412272 -2.78747
upperback -6.87972 -0.461693 1.66812
thorax 4.07508 -0.361818 3.25306
lowerneck -19.5628 4.26506 4.01986
upperneck 28.0267 4.59092 -0.36848
head 12.694 2.30162 -0.0865098
rclavicle 2.8625e-014 -2.5842e-014
rhumerus -42.9787 -6.8454 -69.3084
rradius 24.4632
rwrist 4.9271
rhand -9.63265 -14.6851
rfingers 7.12502
rthumb 16.3374 -44.0169
lclavicle 2.8625e-014 -2.5842e-014
lhumerus -44.446 3.31973 78.9259
lradius 27.9093
lwrist 34.7803
lhand -20.8051 2.79438
lfingers 7.12502
lthumb 5.56254 32.7014
rfemur -37.5762 18.9018 14.7814
rtibia 37.9222
rfoot -17.5329 -24.7721
rtoes -0.652966
lfemur -22.1626 -13.5952 -18.8521
ltibia 13.593
lfoot -7.34008 17.2532
ltoes -10.9319
1388
root 4.8397 15.5625 22.5266 22.1076 -74.7868 -0.760401
lowerback -20.5816 -0.412105 -2.7772
upperback -6.8609 -0.462683 1.67484
thorax 4.08539 -0.362071 3.25416
lowerneck -19.5436 4.26736 4.03007
upperneck 27.9696 4.59231 -0.367504
head 12.6672 2.30432 -0.0884045
rclavicle 2.56184e-014 5.1684e-015
rhumerus -42.9599 -6.8832 -69.2538
rradius 24.5325
rwrist 4.89279
rhand -9.70571 -14.7009
rfingers 7.12502
rthumb 16.267 -44.0385
lclavicle 2.56184e-014 5.1684e-015
lhumerus -44.4201 3.27877 78.9441
lradius 28.0209
lwrist 34.8419
lhand -20.8205 2.78995
lfingers 7.12502
lthumb 5.54762 32.6973
rfemur -37.5875 18.9022 14.7736
rtibia 37.9164
rfoot -17.5159 -24.803
rtoes -0.653206
lfemur -22.194 -13.5953 -18.8475
ltibia 13.6033
lfoot -7.32721 17.2231
ltoes -10.9259
1389
root 4.84319 15.5628 22.5265 22.1043 -74.7575 -0.75177
lowerback -20.5579 -0.41385 -2.77058
upperback -6.8438 -0.465727 1.68369
thorax 4.09195 -0.363239 3.25913
lowerneck -19.5263 4.27362 4.04101
upperneck 27.9177 4.59883 -0.365908
head 12.6432 2.30938 -0.0892375
rclavicle 5.09386e-015 -4.37326e-015
rhumerus -42.9341 -6.90555 -69.2082
rradius 24.6185
rwrist 4.83599
rhand -9.78527 -14.7191
rfingers 7.12502
rthumb 16.1904 -44.063
lclavicle 5.09386e-015 -4.37326e-015
lhumerus -44.389 3.24444 78.9616
lradius 28.1352
lwrist 34.9016
lhand -20.829 2.78877
lfingers 7.12502
lthumb 5.53946 32.6964
rfemur -37.6001 18.9037 14.7642
rtibia 37.9118
rfoot -17.5044 -24.8332
rtoes -0.641722
lfemur -22.2246 -13.5988 -18.8424
ltibia 13.6103
lfoot -7.31049 17.196
ltoes -10.9273
1390
root 4.84689 15.5631 22.5263 22.0995 -74.7276 -0.742863
lowerback -20.5293 -0.417326 -2.76685
upperback -6.82802 -0.470721 1.69471
thorax 4.09479 -0.365266 3.26762
lowerneck -19.5092 4.28264 4.05288
upperneck 27.869 4.60955 -0.366135
head 12.6206 2.3161 -0.090197
rclavicle -2.06736e-014 -9.54166e-015
rhumerus -42.9014 -6.91257 -69.1724
rradius 24.7207
rwrist 4.75757
rhand -9.86901 -14.7385
rfingers 7.12502
rthumb 16.1098 -44.089
lclavicle -2.06736e-014 -9.54166e-015
lhumerus -44.3526 3.21665 78.9784
lradius 28.2518
lwrist 34.9588
lhand -20.832 2.7906
lfingers 7.12502
lthumb 5.53654 32.6983
rfemur -37.6125 18.907 14.7542
rtibia 37.908
rfoot -17.4996 -24.8615
rtoes -0.612376
lfemur -22.2538 -13.6053 -18.8365
ltibia 13.6146
lfoot -7.29106 17.1718
ltoes -10.9348
1391
root 4.85078 15.5633 22.526 22.0945 -74.6974 -0.736019
lowerback -20.4955 -0.422076 -2.76485
upperback -6.81308 -0.477238 1.70733
thorax 4.09411 -0.367949 3.27844
lowerneck -19.4898 4.29293 4.06727
upperneck 27.8202 4.62285 -0.371259
head 12.5979 2.32356 -0.0930622
rclavicle -2.92586e-014 6.75868e-015
rhumerus -42.8617 -6.90679 -69.1469
rradius 24.8381
rwrist 4.66085
rhand -9.95175 -14.7562
rfingers 7.12502
rthumb 16.0301 -44.1131
lclavicle -2.92586e-014 6.75868e-015
lhumerus -44.3111 3.19388 78.994
lradius 28.3711
lwrist 35.0139
lhand -20.833 2.79369
lfingers 7.12502
lthumb 5.53557 32.7014
rfemur -37.6231 18.9111 14.7447
rtibia 37.9041
rfoot -17.5012 -24.8868
rtoes -0.564571
lfemur -22.2809 -13.6137 -18.8298
ltibia 13.6177
lfoot -7.27107 17.1494
ltoes -10.9426
1392
root 4.85484 15.5636 22.5255 22.0906 -74.668 -0.732771
lowerback -20.4568 -0.427634 -2.76407
upperback -6.79863 -0.484725 1.72111
thorax 4.09043 -0.371027 3.29098
lowerneck -19.4675 4.30454 4.08408
upperneck 27.7706 4.63842 -0.379787
head 12.5746 2.33182 -0.0973236
rclavicle 2.26118e-014 2.22639e-014
rhumerus -42.8152 -6.8913 -69.1312
rradius 24.9699
rwrist 4.55019
rhand -10.0285 -14.7698
rfingers 7.12502
rthumb 15.9562 -44.1325
lclavicle 2.26118e-014 2.22639e-014
lhumerus -44.2646 3.17531 79.0078
lradius 28.4932
lwrist 35.066
lhand -20.836 2.79424
lfingers 7.12502
lthumb 5.53274 32.702
rfemur -37.6312 18.9162 14.7364
rtibia 37.8994
rfoot -17.5077 -24.9085
rtoes -0.499702
lfemur -22.306 -13.622 -18.8224
ltibia 13.621
lfoot -7.2519 17.1278
ltoes -10.9502
1393
root 4.85903 15.5639 22.525 22.0891 -74.6403 -0.73434
lowerback -20.4138 -0.433377 -2.76374
upperback -6.78439 -0.492435 1.73511
thorax 4.08438 -0.374156 3.30395
lowerneck -19.4422 4.31791 4.10399
upperneck 27.72 4.65611 -0.390022
head 12.5504 2.34112 -0.102472
rclavicle 2.26366e-014 5.1684e-015
rhumerus -42.7621 -6.86979 -69.125
rradius 25.1151
rwrist 4.43013
rhand -10.0937 -14.777
rfingers 7.12502
rthumb 15.8934 -44.1448
lclavicle 2.26366e-014 5.1684e-015
lhumerus -44.2134 3.15994 79.0186
lradius 28.6187
lwrist 35.1147
lhand -20.8427 2.78963
lfingers 7.12502
lthumb 5.52624 32.6976
rfemur -37.6368 18.9214 14.7301
rtibia 37.8933
rfoot -17.516 -24.9268
rtoes -0.428934
lfemur -22.3296 -13.628 -18.8146
ltibia 13.6258
lfoot -7.23516 17.1058
ltoes -10.9548
